<?xml version="1.0" encoding="utf-8"?>
<svg xmlns="http://www.w3.org/2000/svg" viewBox="0 0 1863.34 455.21">
  <defs>
    <style>
      .cls-1 {
        isolation: isolate;
      }

      .cls-2 {
        fill: #bf0404;
      }
    </style>
  </defs>
  <title>text</title>
  <g id="Layer_2" data-name="Layer 2">
    <g id="logo" class="cls-1">
      <g id="text">
        <g id="Beauvoir">
          <path class="cls-2" d="M434.31,323.21c12.4,0,30-14,30-31.5,0-10.5-6.8-18-14.8-19-1.2,0-1.6-1.5-1.6-2.5a1.93,1.93,0,0,1,2-2c10.8,0,18.4,11.5,18.4,23,0,21.5-19.6,36-34.8,36-27.6,0-44.8-26.5-44.8-58,0-70.5,71.2-103.5,140-103.5a199.49,199.49,0,0,1,62.79,10,72.17,72.17,0,0,1,42.4-13c2,0,2.8,1,2.8,3a2.13,2.13,0,0,1-2.4,2c-10.8,0-20.8,5-30.4,13,32.8,14.5,56.4,40,56.4,75,0,37-25.6,56.5-52.4,63.5,21.6,13.5,30.4,31.5,30.4,50.5,0,37-35.2,75-73.2,75-24,0-45.59-5-62.39-29a4.22,4.22,0,0,1-.8-2c0-2,1.6-3.5,2.8-3.5a3.56,3.56,0,0,1,2,1.5c12.8,19.5,34,26,54.39,26,35.2,0,56.8-30,56.8-60.5,0-22-11.6-44.5-36.4-55.5-8.4-1-25.59-3-25.59-8.5,0-1,.8-3,2-3h.81a47.55,47.55,0,0,0,20.39,4.5c32.8,0,61.6-24,61.6-59,0-26.5-20.4-48-49.6-61.5-13.6,16-25.2,37-35.6,55.5l-45.59,79.5c-34.8,61-94.8,126-160.4,126-43.2,0-66.8-30-66.8-66.5,0-18,6.4-38.5,19.6-52,.8-.5,1.2-1,2-1,1.6,0,2.8,1.5,2.8,3.5a4.8,4.8,0,0,1-1.2,3c-11.2,12.5-16.8,31-16.8,47,0,33.5,23.6,58.5,61.2,58.5,42.4,0,96-44,136.4-114.5l56.8-99c11.2-19.5,22-34.5,32.79-45.5-19.2-7-40.79-10.5-62.39-10.5-60.4,0-120.8,28.5-120.8,91C393.11,298.71,409.11,323.21,434.31,323.21Z"/>
          <path class="cls-2" d="M745.51,350.71a173.8,173.8,0,0,1-39.2,6,85.64,85.64,0,0,0-6.8,32c0,17,10.4,24.5,24,24.5,40,0,86.8-45,100.4-59.5.8-1,.8-1,1.2-1,1.2,0,2.4,1.5,2.4,3a4.22,4.22,0,0,1-.8,2c-18.4,20.5-70.4,63.5-115.2,63.5-18.4,0-31.6-6-31.6-31,0-38,46-84,83.6-84,16.8,0,22,6.5,22,14a17.83,17.83,0,0,1-2.8,10C776.31,341.71,757.11,347.71,745.51,350.71Zm6-35c-17.6,0-32.8,16-42.4,34.5h3.6c13.2-.5,54,.5,54-24.5C766.71,317.71,757.11,315.71,751.51,315.71Z"/>
          <path class="cls-2" d="M920.7,324.71c8-10,16.8-17.5,27.2-19.5h2.4c-21.6,29-30.4,55.5-49.6,85a27.31,27.31,0,0,0-3.2,12.5c0,5,2,9,7.6,9,20.4,0,72.8-39.5,90.4-59a1.29,1.29,0,0,1,1.2-.5c1.2,0,2,1.5,2,3,0,.5-.4,1-.8,2-20,22.5-73.6,64-104.8,64-10.4,0-16.4-6-16.4-16a38,38,0,0,1,3.6-15c-17.2,19-33.6,30.5-49.2,30.5-15.2,0-22.4-13.5-22.4-28,0-38.5,44.4-87,82.4-87C902.7,305.71,913.5,310.71,920.7,324.71Zm-92.8,57c0,19.5,6,26,14.4,26,20.8,0,39.6-22.5,54-45l6-11c2.4-4.5,3.2-10.5,3.2-16,0-15.5-8-21-18-21-11.6,0-26,7-33.2,14C841.5,341.21,827.9,362.71,827.9,381.71Z"/>
          <path class="cls-2" d="M996.3,400.71c0,6,2,10.5,8,10.5,14.4,0,30-12,46-31,10-12,19.6-26.5,30.4-42,10-13.5,19.6-32.5,39.2-32.5h2c-18.4,26-32,57-50,85a23.53,23.53,0,0,0-3.6,12.5c0,5,2,9,8,9,20.4,0,72.4-39.5,90-58.5.4-1,.8-1,1.2-1,1.2,0,2,1.5,2,3a3.61,3.61,0,0,1-.4,2c-20.4,22.5-74,64-105.2,64-10.4,0-16.4-6-16.4-16,0-6,2-12,6.8-20.5l3.6-6.5c-17.2,20.5-38.8,42.5-64.8,42.5-12.8,0-17.2-8-17.2-18.5,0-17.5,10-34,18-47.5l1.6-2.5c12.8-21,26.4-43.5,46.4-47h2.4c-11.2,15.5-20.4,31.5-40,68.5C1001.5,378.71,996.3,391.71,996.3,400.71Z"/>
          <path class="cls-2" d="M1165.5,411.71l-.4.5,8-2.5c37.2-17,79.2-70,79.2-109.5,0-4.5-.4-10-2.8-12a21.47,21.47,0,0,0-2.8-1.5c0-1.5,1.2-2,4-2,14.8,0,19.6,13,19.6,21.5,0,54.5-73.6,100-107.2,113-3.2,1-7.2,2-9.6,2-3.2,0-7.2,0-8-2.5l.8-4c13.2-71,28.4-110,60-110,2.4,0,10.4,0,10.4,2.5,0,.5-1.2,1-2.8,1.5-7.6.5-15.6,9-18.8,13C1177.5,346.21,1169.5,386.71,1165.5,411.71Z"/>
          <path class="cls-2" d="M1275.9,391.21c0-41.5,46-85,80.4-85,18,0,27.6,12,27.6,30.5,0,12-4,23.5-9.6,34-12.8,24-39.6,51-69.6,51C1284.7,421.71,1275.9,409.71,1275.9,391.21Zm89.6-45.5c0-22-8.8-27.5-20-27.5-22.8,0-51.2,23.5-51.2,63.5,0,22.5,8.8,28,20,28C1337.1,409.71,1365.5,385.71,1365.5,345.71Z"/>
          <path class="cls-2" d="M1414.29,403.21c0,5,2,9,8,9,20.4,0,72.4-39.5,90-58.5.4-1,.8-1,1.2-1,1.2,0,2,1.5,2,3a3.61,3.61,0,0,1-.4,2c-20.4,22.5-74,64-105.2,64-10.4,0-16.4-6-16.4-16,0-6,2.4-12,6.8-20.5,24-42.5,31.2-55,39.2-64.5,7.6-8.5,17.6-15,26.8-15h2.4c-10.4,15.5-19.6,29-50.8,85A23.53,23.53,0,0,0,1414.29,403.21Zm56-112c-5.2,0-7.6-5-2.4-15,5.2-9.5,12.8-14,18.4-14,5.2,0,8,4.5,2.8,14S1475.49,291.21,1470.29,291.21Z"/>
          <path class="cls-2" d="M1601.09,303.71c11.6,0,16,9,16,18,0,11-6,22-24.4,24.5,2.8-5.5,5.2-11.5,5.2-17.5,0-8-.8-15-7.6-15-18.8,0-40,21.5-61.2,50.5-18.4,25.5-31.2,56-51.6,56a9,9,0,0,1-3.6-.5l24.8-44c14.4-25.5,31.6-65.5,58.4-70h2.4a378,378,0,0,0-29.2,48.5C1548.69,331.21,1571.89,303.71,1601.09,303.71Z"/>
        </g>
        <g id="Sanctuaire_du_Sacré-Coeur_de" data-name="Sanctuaire du Sacré-Coeur de">
          <path class="cls-2" d="M43.68,43.92a16.31,16.31,0,0,0-15.6-11.4c-7.68,0-13.44,5.16-13.44,12.12a11.88,11.88,0,0,0,5.28,9.72c2.64,2,3.84,2.64,12.72,6.84,7.2,3.36,10.44,5.4,13.32,8.16A20,20,0,0,1,51.84,84a26.53,26.53,0,0,1-8.4,19.2c-5.52,5.28-12.6,7.68-22.2,7.68-8,0-13.56-1.32-21.24-5A80.84,80.84,0,0,0,2.4,89.76H4.08c3,9.36,10.2,15.24,19,15.24s15.24-6.24,15.24-14.76a11.64,11.64,0,0,0-4-9.24c-2.76-2.4-3.84-3-13.56-7.68C6.84,66.72,1.92,60.72,1.92,50.52c0-14.4,11-24,27.72-24a35.77,35.77,0,0,1,19.68,5.64,100,100,0,0,0-4.2,11.76Z"/>
          <path class="cls-2" d="M99.36,30.72c13.8,34.56,27,66.36,32.64,78.48-4.44-.36-6.48-.48-8.88-.48s-4.32.12-8.28.48c-2-6.72-6-17.76-9.72-27C100.56,82,97.68,82,91.56,82c-6.72,0-10.08,0-15.24.24-5,13.08-5.4,13.8-9.6,27a25.79,25.79,0,0,0-4.8-.48,45.14,45.14,0,0,0-5.64.48c5.88-11.52,26.28-58.44,35.4-81.72a18.81,18.81,0,0,0,3.48.24A12.68,12.68,0,0,0,98,27.48ZM90,49.68c-7.32,17-7.44,17.16-10.92,26.16,5.52.12,7.44.12,12.36.12,4.44,0,6.84,0,11.16-.12C99,66.48,95.76,58.32,91.08,47.28Z"/>
          <path class="cls-2" d="M151.8,49.68c-.12,5-.12,9.36-.12,15.48,0,21.6.36,33.72,1.44,44a29.37,29.37,0,0,0-5.16-.48,23.22,23.22,0,0,0-4.8.48c.84-11.4,1.56-35.28,1.56-55.44,0-10.8-.24-19.68-.72-26.16,2,.12,3,.24,4.44.24a16.41,16.41,0,0,0,3.36-.24C156.48,33,159,35.76,184,62.28L194.4,73.56l9.84,10.56,2.16,2.28V64.56c0-14.64-.24-25.08-.84-36.36a30.06,30.06,0,0,0,4.8.48,32.57,32.57,0,0,0,4.92-.48c-1.56,18-2,32-2,67.68v3.84c0,4.68,0,6.36.12,10.08-1.68-.12-2.52-.24-3.6-.24a12.17,12.17,0,0,0-2.88.24c-12.72-15.24-24.48-28.2-43.56-48.12l-9.36-10Z"/>
          <path class="cls-2" d="M300.71,95.64l-2.52,8.88c-7.67,4.44-15.23,6.36-25.07,6.36C246,110.88,229,95.16,229,70c0-26.64,17.76-43.44,46-43.44a57,57,0,0,1,25.79,5.64,56.25,56.25,0,0,0-3,12.24l-1.31.12c-2.88-7.08-11.64-11.76-21.6-11.76-17.88,0-29.4,14.28-29.4,36.6,0,21.72,11.52,35.52,29.64,35.52A36.63,36.63,0,0,0,300,95Z"/>
          <path class="cls-2" d="M345.83,67.32c0,19.56.48,34.92,1.32,41.88-4.32-.36-6.24-.48-8.64-.48a81.48,81.48,0,0,0-8.16.48c.72-5.28,1.32-26.64,1.32-45.6,0-9-.12-16.2-.6-27.6-11.88.24-16.07.48-23.15,1.44a18.33,18.33,0,0,0,.48-4.32,22.8,22.8,0,0,0-.48-4.92c11.75.72,17.75.84,30.23.84,12.84,0,19.08-.12,31.08-.84a20.67,20.67,0,0,0-.48,4.68,21.07,21.07,0,0,0,.48,4.56A168.75,168.75,0,0,0,346.55,36C346.07,46.68,345.83,56.4,345.83,67.32Z"/>
          <path class="cls-2" d="M379.67,67.92c.12-5.16.24-9.72.24-13,0-10.92-.36-19.44-1-26.76a82.63,82.63,0,0,0,8.64.48,65.3,65.3,0,0,0,8-.48c-1,11.28-1.56,25.92-1.56,42,0,14,1.08,19.8,4.92,25.08,4.08,5.76,10.08,8.52,18.12,8.52,11.16,0,19.32-5.76,22.08-15.48,1.68-5.88,2.16-11.88,2.16-29.64,0-14.88-.12-19.68-.72-30.48a28.15,28.15,0,0,0,5,.48,30.9,30.9,0,0,0,5.4-.48c-.6,6.12-1.32,22.08-1.68,37.8-.24,19.8-1.56,26.16-6.84,32.76-6.12,7.92-16,12.12-28.2,12.12-13.44,0-24.36-4.56-29.76-12.48-3.48-5.28-5-11.64-5-21.36Z"/>
          <path class="cls-2" d="M498.83,30.72c13.8,34.56,27,66.36,32.64,78.48-4.44-.36-6.48-.48-8.88-.48s-4.32.12-8.28.48c-2-6.72-6-17.76-9.72-27C500,82,497.15,82,491,82c-6.72,0-10.08,0-15.24.24-5,13.08-5.4,13.8-9.6,27a25.79,25.79,0,0,0-4.8-.48,45.14,45.14,0,0,0-5.64.48c5.88-11.52,26.28-58.44,35.4-81.72a18.81,18.81,0,0,0,3.48.24,12.68,12.68,0,0,0,2.88-.24Zm-9.36,19c-7.32,17-7.44,17.16-10.92,26.16,5.52.12,7.44.12,12.36.12,4.44,0,6.84,0,11.16-.12-3.6-9.36-6.84-17.52-11.52-28.56Z"/>
          <path class="cls-2" d="M551.51,28.68a57.9,57.9,0,0,0,7.8-.48c-.84,10.8-1.2,23.76-1.2,39.72,0,18.48.48,33.6,1.2,41.28a76.53,76.53,0,0,0-8.28-.48,78.53,78.53,0,0,0-8.4.48c.84-8.76,1.32-24.48,1.32-43,0-16.68-.48-29.28-1.32-38A83.54,83.54,0,0,0,551.51,28.68Z"/>
          <path class="cls-2" d="M593,71.16v3.6c0,12.48.6,25.8,1.44,34.44a79.9,79.9,0,0,0-8.76-.48,60.89,60.89,0,0,0-7.92.48c.84-10.8,1.2-24.84,1.2-45.48,0-15-.36-27.36-1.2-35.52a99.11,99.11,0,0,0,10.08.48c2.16,0,5.4-.12,9.36-.24s7.44-.24,9.72-.24c7.8,0,13.08,1.2,17.16,4a18.49,18.49,0,0,1,7.68,15.36,20.25,20.25,0,0,1-10.2,17.76,35.51,35.51,0,0,1-10.92,4c.6,1,2.88,4.2,7,10,9.6,13.92,17.28,24.48,21.48,30-4.8-.36-7.2-.48-10.08-.48a76.37,76.37,0,0,0-8.64.48c-8.28-13.44-19.92-31.2-25-38Zm0-4.8a34,34,0,0,0,4.56.24c11.64,0,18.84-6.72,18.84-17.64,0-9.48-5.76-15.12-15.6-15.12-1.08,0-3,.12-7.2.48-.24,4-.6,19-.6,30Z"/>
          <path class="cls-2" d="M665.63,78.12c0,10.68.12,12.84.48,23.64,1.32.12,2.64.12,3.12.12,7.32,0,19.8-.72,25.56-1.44a18.33,18.33,0,0,0-.48,4.32,20,20,0,0,0,.48,4.44c-7.92-.24-17.28-.48-21.48-.48-7,0-18.12.24-23.28.48.72-10.92,1.2-25.8,1.2-41.28,0-16.32-.36-31.2-1.08-39.72,5.88.48,13.2.72,23,.72,7.44,0,16.44-.36,21.84-.72a21.85,21.85,0,0,0-.48,4.56A22.45,22.45,0,0,0,695,37.2c-9-.84-16.68-1.2-28.68-1.32l-.12,1.44-.12,5.28c-.36,8.52-.48,12.6-.48,20.52,1.44.12,2.76.12,3.12.12,7.44,0,16.8-.36,24.72-1.08a15.91,15.91,0,0,0-.6,4.56,13.17,13.17,0,0,0,.6,4.2c-6.24-.48-18.6-1-25.2-1h-2.64a12.39,12.39,0,0,0-.12,1.68Z"/>
          <path class="cls-2" d="M749.39,28.68c1.92,0,6.12-.12,12-.24,4.56-.12,9.24-.24,12.36-.24,14.28,0,22.32,2.16,29.28,8,8.28,6.84,12.84,17.64,12.84,30.24C815.87,79.68,811,91.2,802,99c-8,7.08-17.76,10.2-31.56,10.2-2.52,0-7.32-.12-12-.24-3.84-.12-6.84-.24-9-.24a92.24,92.24,0,0,0-10,.48c.72-7.8,1.32-26.16,1.32-40.32,0-15.12-.48-29.76-1.32-40.68A86.58,86.58,0,0,0,749.39,28.68Zm15.72,74.76c11.88,0,19-2.28,24.48-7.68,6.48-6.36,9.84-16.2,9.84-28.44,0-11.4-3-20.4-8.76-26.16-5.16-5-11.88-7.08-24.24-7.08a65.94,65.94,0,0,0-10.92.84c-.24,4.92-.6,24.24-.6,33.36,0,12.24.24,27.24.6,34.56A66.51,66.51,0,0,0,765.11,103.44Z"/>
          <path class="cls-2" d="M831,67.92c.12-5.16.24-9.72.24-13,0-10.92-.36-19.44-1-26.76a82.63,82.63,0,0,0,8.64.48,65.3,65.3,0,0,0,8-.48c-1,11.28-1.56,25.92-1.56,42,0,14,1.08,19.8,4.92,25.08,4.08,5.76,10.08,8.52,18.12,8.52,11.16,0,19.32-5.76,22.08-15.48,1.68-5.88,2.16-11.88,2.16-29.64,0-14.88-.12-19.68-.72-30.48a28.15,28.15,0,0,0,5,.48,30.9,30.9,0,0,0,5.4-.48c-.6,6.12-1.32,22.08-1.68,37.8-.24,19.8-1.56,26.16-6.84,32.76-6.12,7.92-16,12.12-28.2,12.12-13.44,0-24.36-4.56-29.76-12.48-3.48-5.28-5-11.64-5-21.36Z"/>
          <path class="cls-2" d="M990.11,43.92a16.31,16.31,0,0,0-15.6-11.4c-7.68,0-13.44,5.16-13.44,12.12a11.88,11.88,0,0,0,5.28,9.72c2.64,2,3.84,2.64,12.72,6.84,7.2,3.36,10.44,5.4,13.32,8.16A20,20,0,0,1,998.27,84a26.53,26.53,0,0,1-8.4,19.2c-5.52,5.28-12.6,7.68-22.2,7.68-8,0-13.56-1.32-21.24-5a80.84,80.84,0,0,0,2.4-16.08h1.68c3,9.36,10.2,15.24,19,15.24s15.24-6.24,15.24-14.76a11.64,11.64,0,0,0-4-9.24c-2.76-2.4-3.84-3-13.56-7.68-13.92-6.6-18.84-12.6-18.84-22.8,0-14.4,11-24,27.72-24a35.77,35.77,0,0,1,19.68,5.64,100,100,0,0,0-4.2,11.76Z"/>
          <path class="cls-2" d="M1045.79,30.72c13.8,34.56,27,66.36,32.64,78.48-4.44-.36-6.48-.48-8.88-.48s-4.32.12-8.28.48c-2-6.72-6-17.76-9.72-27C1047,82,1044.11,82,1038,82c-6.72,0-10.08,0-15.24.24-5,13.08-5.4,13.8-9.6,27a25.79,25.79,0,0,0-4.8-.48,45.14,45.14,0,0,0-5.64.48c5.88-11.52,26.28-58.44,35.4-81.72a18.81,18.81,0,0,0,3.48.24,12.68,12.68,0,0,0,2.88-.24Zm-9.36,19c-7.32,17-7.44,17.16-10.92,26.16,5.52.12,7.44.12,12.36.12,4.44,0,6.84,0,11.16-.12-3.6-9.36-6.84-17.52-11.52-28.56Z"/>
          <path class="cls-2" d="M1153.55,95.64l-2.52,8.88c-7.68,4.44-15.24,6.36-25.08,6.36-27.12,0-44.16-15.72-44.16-40.92,0-26.64,17.76-43.44,46-43.44a57.09,57.09,0,0,1,25.8,5.64,55.11,55.11,0,0,0-3,12.24l-1.32.12c-2.88-7.08-11.64-11.76-21.6-11.76-17.88,0-29.4,14.28-29.4,36.6,0,21.72,11.52,35.52,29.64,35.52a36.67,36.67,0,0,0,25-9.84Z"/>
          <path class="cls-2" d="M1182.11,71.16v3.6c0,12.48.6,25.8,1.44,34.44a79.9,79.9,0,0,0-8.76-.48,60.89,60.89,0,0,0-7.92.48c.84-10.8,1.2-24.84,1.2-45.48,0-15-.36-27.36-1.2-35.52a99.11,99.11,0,0,0,10.08.48c2.16,0,5.4-.12,9.36-.24s7.44-.24,9.72-.24c7.8,0,13.08,1.2,17.16,4a18.49,18.49,0,0,1,7.68,15.36,20.25,20.25,0,0,1-10.2,17.76,35.51,35.51,0,0,1-10.92,4c.6,1,2.88,4.2,7,10,9.6,13.92,17.28,24.48,21.48,30-4.8-.36-7.2-.48-10.08-.48a76.37,76.37,0,0,0-8.64.48c-8.28-13.44-19.92-31.2-25-38Zm0-4.8a34,34,0,0,0,4.56.24c11.64,0,18.84-6.72,18.84-17.64,0-9.48-5.76-15.12-15.6-15.12-1.08,0-3,.12-7.2.48-.24,4-.6,19-.6,30Z"/>
          <path class="cls-2" d="M1254.83,78.12c0,10.68.12,12.84.48,23.64,1.32.12,2.64.12,3.12.12,7.32,0,19.8-.72,25.56-1.44a18.33,18.33,0,0,0-.48,4.32,20,20,0,0,0,.48,4.44c-7.92-.24-17.28-.48-21.48-.48-7,0-18.12.24-23.28.48.72-10.92,1.2-25.8,1.2-41.28,0-16.32-.36-31.2-1.08-39.72,5.88.48,13.2.72,23,.72,7.44,0,16.44-.36,21.84-.72a21.85,21.85,0,0,0-.48,4.56,22.45,22.45,0,0,0,.48,4.44c-9-.84-16.68-1.2-28.68-1.32l-.12,1.44-.12,5.28c-.36,8.52-.48,12.6-.48,20.52,1.44.12,2.76.12,3.12.12,7.44,0,16.8-.36,24.72-1.08a15.91,15.91,0,0,0-.6,4.56,13.17,13.17,0,0,0,.6,4.2c-6.24-.48-18.6-1-25.2-1h-2.64a12.39,12.39,0,0,0-.12,1.68Zm16-73.56c4.08-3.84,5.28-4.56,7.68-4.56A4.53,4.53,0,0,1,1283,4.44c0,2.16-1.32,3.72-4.44,5.4l-18,10h-5.52Z"/>
          <path class="cls-2" d="M1318.31,81.72h-28.92V71.4h28.92Z"/>
          <path class="cls-2" d="M1402.3,95.64l-2.52,8.88c-7.68,4.44-15.24,6.36-25.08,6.36-27.11,0-44.15-15.72-44.15-40.92,0-26.64,17.76-43.44,46-43.44a57.09,57.09,0,0,1,25.8,5.64,55.11,55.11,0,0,0-3,12.24l-1.32.12c-2.88-7.08-11.64-11.76-21.6-11.76-17.88,0-29.4,14.28-29.4,36.6,0,21.72,11.52,35.52,29.64,35.52a36.67,36.67,0,0,0,25-9.84Z"/>
          <path class="cls-2" d="M1480.42,36.84l-.36-5.88-.12-2.76c4,.36,10.44.48,21.24.48,4.92,0,9.24-.12,21.12-.48a27,27,0,0,0-.48,4.92,32.74,32.74,0,0,0,.36,4.32,198.23,198.23,0,0,0-24-1.56h-3.72c-.48,6.24-.72,18.24-.72,27.36,7.68,0,20.64-.36,27.12-.84a15.66,15.66,0,0,0-.6,4.44,22.3,22.3,0,0,0,.48,4.32q-13-1.08-27-1.08l-.12,2.52c-.24,14.16-.24,14.16-.24,16.56,0,4.32,0,5.76.24,12.84,11.64-.12,19.92-.48,28.44-1.32-.24,3.12-.24,3.6-.24,4.68a24.1,24.1,0,0,0,.24,3.84c-4.56-.24-17-.48-24.48-.48-6.12,0-10.68.12-18.84.48.24-3.84.48-7.08.84-10.92-8.28,8.76-17.52,12.6-29.88,12.6-10.56,0-20.4-3.36-27.48-9.24-8.16-7.08-12.48-17.88-12.48-31.68,0-26.88,16-43.44,42-43.44,12.48,0,20.88,3.72,28.68,12.72Zm-54.48,32.88c0,21.48,10.32,35.52,26,35.52A25.47,25.47,0,0,0,1472.74,95c4.92-6.6,7.2-15.48,7.2-27.72,0-22.44-9.48-35-26.28-35C1436.26,32.28,1425.94,46.32,1425.94,69.72Z"/>
          <path class="cls-2" d="M1536.46,67.92c.12-5.16.24-9.72.24-13,0-10.92-.36-19.44-1-26.76a82.63,82.63,0,0,0,8.64.48,65.3,65.3,0,0,0,8-.48c-1,11.28-1.56,25.92-1.56,42,0,14,1.08,19.8,4.92,25.08,4.08,5.76,10.08,8.52,18.12,8.52,11.16,0,19.32-5.76,22.08-15.48,1.68-5.88,2.16-11.88,2.16-29.64,0-14.88-.12-19.68-.72-30.48a28.15,28.15,0,0,0,5,.48,30.9,30.9,0,0,0,5.4-.48c-.6,6.12-1.32,22.08-1.68,37.8-.24,19.8-1.56,26.16-6.84,32.76-6.12,7.92-16,12.12-28.2,12.12-13.44,0-24.36-4.56-29.76-12.48-3.48-5.28-5-11.64-5-21.36Z"/>
          <path class="cls-2" d="M1640.62,71.16v3.6c0,12.48.6,25.8,1.44,34.44a79.9,79.9,0,0,0-8.76-.48,60.89,60.89,0,0,0-7.92.48c.84-10.8,1.2-24.84,1.2-45.48,0-15-.36-27.36-1.2-35.52a99.11,99.11,0,0,0,10.08.48c2.16,0,5.4-.12,9.36-.24s7.44-.24,9.72-.24c7.8,0,13.08,1.2,17.16,4a18.49,18.49,0,0,1,7.68,15.36,20.25,20.25,0,0,1-10.2,17.76,35.51,35.51,0,0,1-10.92,4c.6,1,2.88,4.2,7,10,9.6,13.92,17.28,24.48,21.48,30-4.8-.36-7.2-.48-10.08-.48a76.37,76.37,0,0,0-8.64.48c-8.28-13.44-19.92-31.2-25-38Zm0-4.8a34,34,0,0,0,4.56.24c11.64,0,18.84-6.72,18.84-17.64,0-9.48-5.76-15.12-15.6-15.12-1.08,0-3,.12-7.2.48-.24,4-.6,19-.6,30Z"/>
          <path class="cls-2" d="M1737.7,28.68c1.92,0,6.12-.12,12-.24,4.56-.12,9.24-.24,12.36-.24,14.28,0,22.32,2.16,29.28,8,8.28,6.84,12.84,17.64,12.84,30.24,0,13.2-4.92,24.72-13.92,32.52-8,7.08-17.76,10.2-31.56,10.2-2.52,0-7.32-.12-12-.24-3.84-.12-6.84-.24-9-.24a92.24,92.24,0,0,0-10,.48c.72-7.8,1.32-26.16,1.32-40.32,0-15.12-.48-29.76-1.32-40.68A86.58,86.58,0,0,0,1737.7,28.68Zm15.72,74.76c11.88,0,19-2.28,24.48-7.68,6.48-6.36,9.84-16.2,9.84-28.44,0-11.4-3-20.4-8.76-26.16-5.16-5-11.88-7.08-24.24-7.08a65.94,65.94,0,0,0-10.92.84c-.24,4.92-.6,24.24-.6,33.36,0,12.24.24,27.24.6,34.56A66.51,66.51,0,0,0,1753.42,103.44Z"/>
          <path class="cls-2" d="M1833.94,78.12c0,10.68.12,12.84.48,23.64,1.32.12,2.64.12,3.12.12,7.32,0,19.8-.72,25.56-1.44a18.33,18.33,0,0,0-.48,4.32,20,20,0,0,0,.48,4.44c-7.92-.24-17.28-.48-21.48-.48-7,0-18.12.24-23.28.48.72-10.92,1.2-25.8,1.2-41.28,0-16.32-.36-31.2-1.08-39.72,5.88.48,13.2.72,23,.72,7.44,0,16.44-.36,21.84-.72a21.85,21.85,0,0,0-.48,4.56,22.45,22.45,0,0,0,.48,4.44c-9-.84-16.68-1.2-28.68-1.32l-.12,1.44-.12,5.28c-.36,8.52-.48,12.6-.48,20.52,1.44.12,2.76.12,3.12.12,7.44,0,16.8-.36,24.72-1.08a15.91,15.91,0,0,0-.6,4.56,13.17,13.17,0,0,0,.6,4.2c-6.24-.48-18.6-1-25.2-1h-2.64a12.39,12.39,0,0,0-.12,1.68Z"/>
        </g>
      </g>
    </g>
  </g>
</svg>
